<svg width="121" height="25" viewBox="0 0 121 25" fill="none" xmlns="http://www.w3.org/2000/svg">
<g clip-path="url(#clip0_13_2)">
<path d="M8.3 8.70078C7.9 8.60078 6.9 8.50078 5.8 8.80078C5.4 8.90078 4.6 9.10078 3.8 9.50078V2.20078C3.8 1.10078 2.9 0.300781 1.9 0.300781C0.9 0.300781 0 1.20078 0 2.20078V23.0008C0 24.1008 0.9 24.9008 1.9 24.9008C3 24.9008 3.8 24.0008 3.8 23.0008V15.5008C4 14.8008 4.2 14.3008 4.6 13.8008C4.8 13.5008 5.5 12.8008 6.6 12.7008C8.2 12.5008 9.3 13.4008 9.5 13.6008C10.7 14.7008 10.7 16.1008 10.7 16.3008V23.4008C10.7 24.3008 11.5 25.1008 12.5 25.1008C13.5 25.1008 14.3 24.3008 14.3 23.4008V15.9008C14.3 14.4008 13.8 13.3008 13.5 12.8008C12.6 10.5008 10.5 9.00078 8.3 8.70078Z" fill="black"/>
<path d="M78.1998 8.49952C77.8998 8.49952 77.3998 8.39952 76.8998 8.49952C74.0998 8.69952 72.0998 10.4995 71.6998 10.8995C69.3998 13.1995 69.2998 16.0995 69.2998 16.5995C69.2998 17.4995 69.3998 19.8995 71.1998 21.9995C72.4998 23.4995 74.4998 24.4995 76.8998 24.6995C77.1998 24.6995 77.4998 24.7995 77.9998 24.7995C81.3998 24.6995 83.6998 22.1995 83.7998 22.0995C84.0998 21.7995 85.6998 19.6995 85.6998 16.6995C85.7998 12.3995 82.4998 8.79952 78.1998 8.49952ZM81.6998 16.7995C81.5998 19.0995 79.5998 20.8995 77.2998 20.7995C74.9998 20.6995 73.0998 18.7995 73.1998 16.4995C73.2998 14.1995 75.2998 12.3995 77.5998 12.4995C79.9998 12.4995 81.7998 14.4995 81.6998 16.7995Z" fill="black"/>
<path d="M59.7998 8.69961C58.2998 8.69961 56.8998 9.09961 55.6998 9.89961C55.3998 9.09961 54.6998 8.59961 53.7998 8.59961C52.6998 8.59961 51.7998 9.49961 51.7998 10.5996V22.7996C51.7998 23.8996 52.6998 24.7996 53.7998 24.7996C53.8998 24.7996 53.8998 24.7996 53.9998 24.7996C54.0998 24.7996 54.0998 24.7996 54.1998 24.7996C55.0998 24.7996 55.8998 24.0996 55.8998 23.0996V16.1996C55.8998 16.0996 55.9998 15.8996 56.0998 15.5996C56.0998 15.4996 56.2998 14.8996 56.3998 14.5996C56.7998 13.6996 57.4998 13.1996 57.6998 13.0996C58.4998 12.5996 59.1998 12.4996 59.3998 12.4996C59.9998 12.4996 60.3998 12.5996 60.6998 12.5996C60.8998 12.6996 61.6998 12.8996 62.2998 13.4996C63.2998 14.4996 63.4998 15.7996 63.4998 16.0996C63.4998 18.3996 63.4998 20.6996 63.4998 22.9996C63.4998 23.1996 63.5998 23.6996 64.0998 24.0996C64.6998 24.5996 65.2998 24.5996 65.3998 24.5996C66.2998 24.5996 67.0998 23.8996 67.0998 22.8996V15.5996C66.9998 14.7996 66.7998 13.4996 65.9998 12.1996C65.7998 11.9996 63.6998 8.79961 59.7998 8.69961Z" fill="black"/>
<path d="M118.2 10.2992C116.3 8.79922 114.1 8.69922 113.8 8.69922C113.5 8.69922 112.4 8.69922 111 9.09922C109.3 9.69922 108.2 10.5992 107.9 10.8992C105.5 13.0992 105.4 16.0992 105.3 16.5992C105.3 17.2992 105.2 19.7992 107 22.0992C108.9 24.3992 111.4 24.7992 112.1 24.8992C113.2 25.0992 114.3 24.9992 114.6 24.8992C115.1 24.7992 115.9 24.6992 117 24.2992C118.4 23.6992 119.3 22.8992 119.9 22.1992C120.2 21.3992 120.2 20.5992 119.7 20.0992C119.3 19.6992 118.8 19.4992 118.7 19.4992C117.8 19.2992 117 19.7992 116.9 19.8992C116.7 20.0992 116.4 20.3992 116 20.5992C115.2 21.0992 114.4 21.0992 113.9 21.0992C113.5 21.0992 112.1 21.1992 110.9 20.1992C109.8 19.3992 109.4 18.3992 109.2 17.9992H120.9C121.3 14.9992 120.3 11.9992 118.2 10.2992ZM110.8 13.3992C111.9 12.6992 112.9 12.5992 113.4 12.5992C113.8 12.5992 114.8 12.5992 115.8 13.2992C116.4 13.6992 116.7 14.1992 117 14.5992H109.7C109.9 14.1992 110.3 13.7992 110.8 13.3992Z" fill="black"/>
<path d="M38.1999 16.1004C39.1999 15.1004 40.0999 14.1004 41.0999 13.1004C39.8999 11.9004 38.6999 10.7004 37.3999 9.50039C36.5999 8.70039 35.2999 8.70039 34.4999 9.50039C33.6999 10.3004 33.6999 11.6004 34.4999 12.4004C35.6999 13.6004 36.8999 14.8004 38.1999 16.1004Z" fill="black"/>
<path d="M49.1001 9.09921C48.3001 8.29921 47.0001 8.39921 46.3001 9.19921L34.5001 21.4992C33.7001 22.2992 33.8001 23.5992 34.6001 24.2992C35.4001 25.0992 36.7001 24.9992 37.4001 24.1992L41.7001 19.6992L46.1001 24.0992C46.9001 24.8992 48.2001 24.8992 49.0001 24.0992C49.8001 23.2992 49.8001 21.9992 49.0001 21.1992L44.6001 16.6992L49.2001 11.8992C50.0001 11.0992 49.9001 9.89921 49.1001 9.09921Z" fill="black"/>
<path d="M101.7 0C100.6 0 99.7 0.9 99.7 2V10C98.6 9.2 97.2 8.7 95.8 8.6C95.5 8.6 95 8.5 94.5 8.6C91.7 8.8 89.8 10.6 89.4 11C87 13.2 87 16.1 87 16.6C87 17.5 87.1 19.9 88.9 22C90.2 23.5 92.1 24.5 94.5 24.7C94.8 24.7 95.1 24.8 95.6 24.8C97.4 24.7 98.8 24 99.8 23.3C100 24.1 100.8 24.7 101.7 24.7C102.8 24.7 103.7 23.8 103.7 22.7V1.9C103.6 0.9 102.7 0 101.7 0ZM99.4 16.8C99.3 19.2 97.3 21.1 94.9 21C92.5 20.9 90.7 18.9 90.8 16.5C90.9 14.1 92.9 12.2 95.3 12.3C97.7 12.4 99.5 14.4 99.4 16.8Z" fill="black"/>
<path d="M29.2999 10.4008C27.3999 8.90078 25.1999 8.80078 24.8999 8.80078C24.5999 8.80078 23.4999 8.80078 22.0999 9.20078C20.3999 9.80078 19.2999 10.7008 18.9999 11.0008C16.5999 13.2008 16.4999 16.2008 16.3999 16.7008C16.3999 17.4008 16.2999 19.9008 18.0999 22.2008C19.9999 24.5008 22.4999 24.9008 23.1999 25.0008C24.2999 25.2008 25.3999 25.1008 25.6999 25.0008C26.1999 24.9008 26.9999 24.8008 28.0999 24.4008C29.4999 23.8008 30.3999 23.0008 30.9999 22.3008C31.2999 21.5008 31.2999 20.7008 30.7999 20.2008C30.3999 19.8008 29.8999 19.6008 29.7999 19.6008C28.8999 19.4008 28.0999 19.9008 27.9999 20.0008C27.7999 20.2008 27.4999 20.5008 27.0999 20.7008C26.2999 21.2008 25.4999 21.2008 24.9999 21.2008C24.5999 21.2008 23.1999 21.3008 21.9999 20.3008C20.8999 19.5008 20.4999 18.5008 20.2999 18.1008H31.9999C32.3999 15.0008 31.3999 12.1008 29.2999 10.4008ZM21.8999 13.5008C22.9999 12.8008 23.9999 12.7008 24.4999 12.7008C24.8999 12.7008 25.8999 12.7008 26.8999 13.4008C27.4999 13.8008 27.7999 14.3008 28.0999 14.7008H20.7999C20.9999 14.3008 21.3999 13.8008 21.8999 13.5008Z" fill="black"/>
</g>
<defs>
<clipPath id="clip0_13_2">
<rect width="120.9" height="25" fill="white"/>
</clipPath>
</defs>
</svg>
