<svg width="121" height="25" viewBox="0 0 121 25" fill="none" xmlns="http://www.w3.org/2000/svg">
<g clip-path="url(#clip0_2361_6387)">
<path d="M8.3 8.69999C7.9 8.59999 6.9 8.49999 5.8 8.79999C5.4 8.89999 4.6 9.09999 3.8 9.49999V2.19999C3.8 1.09999 2.9 0.299988 1.9 0.299988C0.9 0.299988 0 1.19999 0 2.19999V23C0 24.1 0.9 24.9 1.9 24.9C3 24.9 3.8 24 3.8 23V15.5C4 14.8 4.2 14.3 4.6 13.8C4.8 13.5 5.5 12.8 6.6 12.7C8.2 12.5 9.3 13.4 9.5 13.6C10.7 14.7 10.7 16.1 10.7 16.3V23.4C10.7 24.3 11.5 25.1 12.5 25.1C13.5 25.1 14.3 24.3 14.3 23.4V15.9C14.3 14.4 13.8 13.3 13.5 12.8C12.6 10.5 10.5 8.99999 8.3 8.69999Z" fill="white"/>
<path d="M78.2 8.50001C77.9 8.50001 77.4 8.40001 76.9 8.50001C74.1 8.70001 72.1 10.5 71.7 10.9C69.4 13.2 69.3 16.1 69.3 16.6C69.3 17.5 69.4 19.9 71.2 22C72.5 23.5 74.5 24.5 76.9 24.7C77.2 24.7 77.5 24.8 78 24.8C81.4 24.7 83.7 22.2 83.8 22.1C84.1 21.8 85.7 19.7 85.7 16.7C85.8 12.4 82.5 8.80001 78.2 8.50001ZM81.7 16.8C81.6 19.1 79.6 20.9 77.3 20.8C75 20.7 73.1 18.8 73.2 16.5C73.3 14.2 75.3 12.4 77.6 12.5C80 12.5 81.8 14.5 81.7 16.8Z" fill="white"/>
<path d="M59.8 8.70001C58.3 8.70001 56.9001 9.10001 55.7001 9.90001C55.4001 9.10001 54.7 8.60001 53.8 8.60001C52.7 8.60001 51.8 9.50001 51.8 10.6V22.8C51.8 23.9 52.7 24.8 53.8 24.8C53.9 24.8 53.9 24.8 54 24.8C54.1 24.8 54.1001 24.8 54.2001 24.8C55.1001 24.8 55.9001 24.1 55.9001 23.1V16.2C55.9001 16.1 56 15.9 56.1 15.6C56.1 15.5 56.3001 14.9 56.4001 14.6C56.8001 13.7 57.5001 13.2 57.7001 13.1C58.5001 12.6 59.2001 12.5 59.4001 12.5C60.0001 12.5 60.4001 12.6 60.7001 12.6C60.9001 12.7 61.7 12.9 62.3 13.5C63.3 14.5 63.5 15.8 63.5 16.1C63.5 18.4 63.5 20.7 63.5 23C63.5 23.2 63.6 23.7 64.1 24.1C64.7 24.6 65.3001 24.6 65.4001 24.6C66.3001 24.6 67.1 23.9 67.1 22.9V15.6C67 14.8 66.8 13.5 66 12.2C65.8 12 63.7 8.80001 59.8 8.70001Z" fill="white"/>
<path d="M118.2 10.3C116.3 8.80001 114.1 8.70001 113.8 8.70001C113.5 8.70001 112.4 8.70001 111 9.10001C109.3 9.70001 108.2 10.6 107.9 10.9C105.5 13.1 105.4 16.1 105.3 16.6C105.3 17.3 105.2 19.8 107 22.1C108.9 24.4 111.4 24.8 112.1 24.9C113.2 25.1 114.3 25 114.6 24.9C115.1 24.8 115.9 24.7 117 24.3C118.4 23.7 119.3 22.9 119.9 22.2C120.2 21.4 120.2 20.6 119.7 20.1C119.3 19.7 118.8 19.5 118.7 19.5C117.8 19.3 117 19.8 116.9 19.9C116.7 20.1 116.4 20.4 116 20.6C115.2 21.1 114.4 21.1 113.9 21.1C113.5 21.1 112.1 21.2 110.9 20.2C109.8 19.4 109.4 18.4 109.2 18H120.9C121.3 15 120.3 12 118.2 10.3ZM110.8 13.4C111.9 12.7 112.9 12.6 113.4 12.6C113.8 12.6 114.8 12.6 115.8 13.3C116.4 13.7 116.7 14.2 117 14.6H109.7C109.9 14.2 110.3 13.8 110.8 13.4Z" fill="white"/>
<path d="M38.2 16.1C39.2 15.1 40.1 14.1 41.1 13.1C39.9 11.9 38.7 10.7 37.4 9.49999C36.6 8.69999 35.3 8.69999 34.5 9.49999C33.7 10.3 33.7 11.6 34.5 12.4C35.7 13.6 36.9 14.8 38.2 16.1Z" fill="white"/>
<path d="M49.1 9.10001C48.3 8.30001 47 8.40001 46.3 9.20001L34.5 21.5C33.7 22.3 33.8 23.6 34.6 24.3C35.4 25.1 36.7 25 37.4 24.2L41.7 19.7L46.1 24.1C46.9 24.9 48.2 24.9 49 24.1C49.8 23.3 49.8 22 49 21.2L44.6 16.7L49.2 11.9C50 11.1 49.9 9.90001 49.1 9.10001Z" fill="white"/>
<path d="M101.7 0C100.6 0 99.7 0.9 99.7 2V10C98.6 9.2 97.2 8.7 95.8 8.6C95.5 8.6 95 8.5 94.5 8.6C91.7 8.8 89.8 10.6 89.4 11C87 13.2 87 16.1 87 16.6C87 17.5 87.1 19.9 88.9 22C90.2 23.5 92.1 24.5 94.5 24.7C94.8 24.7 95.1 24.8 95.6 24.8C97.4 24.7 98.8 24 99.8 23.3C100 24.1 100.8 24.7 101.7 24.7C102.8 24.7 103.7 23.8 103.7 22.7V1.9C103.6 0.9 102.7 0 101.7 0ZM99.4 16.8C99.3 19.2 97.3 21.1 94.9 21C92.5 20.9 90.7 18.9 90.8 16.5C90.9 14.1 92.9 12.2 95.3 12.3C97.7 12.4 99.5 14.4 99.4 16.8Z" fill="white"/>
<path d="M29.3 10.4C27.4 8.89999 25.2 8.79999 24.9 8.79999C24.6 8.79999 23.5 8.79999 22.1 9.19999C20.4 9.79999 19.3 10.7 19 11C16.6 13.2 16.5 16.2 16.4 16.7C16.4 17.4 16.3 19.9 18.1 22.2C20 24.5 22.5 24.9 23.2 25C24.3 25.2 25.4 25.1 25.7 25C26.2 24.9 27 24.8 28.1 24.4C29.5 23.8 30.4 23 31 22.3C31.3 21.5 31.3 20.7 30.8 20.2C30.4 19.8 29.9 19.6 29.8 19.6C28.9 19.4 28.1 19.9 28 20C27.8 20.2 27.5 20.5 27.1 20.7C26.3 21.2 25.5 21.2 25 21.2C24.6 21.2 23.2 21.3 22 20.3C20.9 19.5 20.5 18.5 20.3 18.1H32C32.4 15 31.4 12.1 29.3 10.4ZM21.9 13.5C23 12.8 24 12.7 24.5 12.7C24.9 12.7 25.9 12.7 26.9 13.4C27.5 13.8 27.8 14.3 28.1 14.7H20.8C21 14.3 21.4 13.8 21.9 13.5Z" fill="white"/>
</g>
<defs>
<clipPath id="clip0_2361_6387">
<rect width="120.9" height="25" fill="white"/>
</clipPath>
</defs>
</svg>
